<svg xmlns="http://www.w3.org/2000/svg" width="25" height="24" viewBox="0 0 25 24" fill="none">
  <path d="M19.6708 13H3.5C2.94772 13 2.5 12.5523 2.5 12C2.5 11.4477 2.94772 11 3.5 11H19.6708C19.5725 10.7375 19.3907 10.4412 19.0313 10.0179C18.6308 9.54612 18.0711 8.98532 17.2674 8.18162L15.7929 6.70711C15.4024 6.31658 15.4024 5.68342 15.7929 5.29289C16.1834 4.90237 16.8166 4.90237 17.2071 5.29289L18.7119 6.79767C19.4782 7.56399 20.0964 8.18215 20.556 8.72358C21.0293 9.28106 21.393 9.82271 21.5984 10.4549C21.9247 11.4591 21.9247 12.5409 21.5984 13.5451C21.393 14.1773 21.0293 14.7189 20.556 15.2764C20.0964 15.8179 19.4783 16.436 18.7119 17.2023L17.2071 18.7071C16.8166 19.0976 16.1834 19.0976 15.7929 18.7071C15.4024 18.3166 15.4024 17.6834 15.7929 17.2929L17.2674 15.8184C18.0711 15.0147 18.6308 14.4539 19.0313 13.9821C19.3907 13.5588 19.5725 13.2625 19.6708 13Z" fill="white"/>
</svg>