<svg xmlns="http://www.w3.org/2000/svg" width="25" height="24" viewBox="0 0 25 24" fill="none">
<path d="M15.1663 4.11352C15.687 3.92948 15.96 3.35815 15.7759 2.83744C15.5919 2.31672 15.0205 2.0438 14.4998 2.22784C12.9476 2.77648 11.8331 4.25679 11.8331 5.99998L11.833 9.13756C11.8326 9.93294 11.8323 10.5236 11.9694 11.0353C12.3392 12.4156 13.4174 13.4938 14.7978 13.8637C15.1053 13.9461 15.4413 13.9788 15.8331 13.9918V16C15.8331 16.9773 15.8282 17.3199 15.7754 17.5853C15.5387 18.7754 14.6084 19.7057 13.4183 19.9424C13.1529 19.9952 12.8103 20 11.8331 20C10.8558 20 10.5132 19.9952 10.2478 19.9424C9.05773 19.7057 8.12744 18.7754 7.89072 17.5853C7.83792 17.3199 7.83307 16.9773 7.83307 16V12C7.83307 11.9716 7.83189 11.9434 7.82956 11.9156C8.85321 11.6522 9.63507 10.8032 9.80098 9.74275C9.8335 9.53488 9.83331 9.30562 9.83311 9.05938L9.83307 9.00003L9.83311 8.94069C9.83331 8.69445 9.8335 8.46518 9.80098 8.25731C9.62161 7.11084 8.72226 6.21149 7.57579 6.03212C7.36792 5.9996 7.13866 5.99979 6.89241 6L6.83307 6.00003L6.77374 6C6.52749 5.99979 6.29823 5.9996 6.09035 6.03212C4.94388 6.21149 4.04454 7.11084 3.86516 8.25731C3.83264 8.46518 3.83283 8.69445 3.83304 8.94069L3.83307 9.00003L3.83304 9.05937C3.83283 9.30561 3.83264 9.53488 3.86516 9.74275C4.03107 10.8032 4.81294 11.6522 5.83659 11.9156C5.83426 11.9434 5.83307 11.9716 5.83307 12L5.83305 16.1158C5.83285 16.9334 5.83271 17.4907 5.92915 17.9755C6.32368 19.9589 7.87417 21.5094 9.85762 21.904C10.3424 22.0004 10.8997 22.0003 11.7173 22H11.9488C12.7664 22.0003 13.3237 22.0004 13.8085 21.904C15.792 21.5094 17.3425 19.9589 17.737 17.9755C17.8334 17.4907 17.8333 16.9334 17.8331 16.1158L17.8331 13.9918C18.2249 13.9788 18.5609 13.9461 18.8683 13.8637C20.2487 13.4938 21.3269 12.4156 21.6968 11.0353C21.8339 10.5236 21.8336 9.93294 21.8331 9.13755L21.8331 5.99998C21.8331 4.25679 20.7186 2.77648 19.1663 2.22784C18.6456 2.0438 18.0743 2.31672 17.8902 2.83744C17.7062 3.35815 17.9791 3.92948 18.4998 4.11352C19.278 4.38856 19.8331 5.13073 19.8331 5.99998V8.99998C19.8331 9.99433 19.8245 10.2953 19.7649 10.5176C19.58 11.2078 19.0409 11.7469 18.3507 11.9318C18.1284 11.9914 17.8274 12 16.8331 12C15.8387 12 15.5377 11.9914 15.3154 11.9318C14.6253 11.7469 14.0862 11.2078 13.9012 10.5176C13.8417 10.2953 13.8331 9.99433 13.8331 8.99998V5.99998C13.8331 5.13073 14.3882 4.38856 15.1663 4.11352Z" fill="#647067"/>
</svg>