<svg xmlns="http://www.w3.org/2000/svg" width="25" height="24" viewBox="0 0 25 24" fill="none">
<path d="M5.0138 4.77598C6.85068 3.28382 9.4821 3.28382 11.319 4.77598C11.5201 4.93938 11.7269 5.14618 12.0305 5.44989L12.0735 5.4929C12.1191 5.53855 12.1441 5.56347 12.1627 5.58141L12.1664 5.58494L12.1701 5.58141C12.1887 5.56347 12.2136 5.53855 12.2593 5.4929L12.3023 5.44989C12.6059 5.14618 12.8127 4.93938 13.0138 4.77598C14.8507 3.28382 17.4821 3.28382 19.319 4.77598C19.5201 4.93938 19.7269 5.14619 20.0305 5.44992L20.4512 5.8706C21.0004 6.41953 21.3747 6.79364 21.6393 7.18127C22.4226 8.32888 22.6771 9.72137 22.4029 11.0281C22.327 11.0097 22.2479 11 22.1664 11H16.7353C15.7338 11 15.4414 10.9898 15.1908 10.9137C14.9392 10.8373 14.7051 10.712 14.502 10.5451C14.2997 10.3788 14.129 10.1411 13.5735 9.30786L12.9984 8.4453C12.754 8.07864 12.2984 7.91521 11.8766 8.04291C11.4548 8.17061 11.1664 8.55933 11.1664 9V11.9654C11.1447 11.9466 11.1228 11.928 11.1007 11.9098C10.6944 11.5759 10.2263 11.3254 9.72317 11.1726C9.15184 10.9991 8.54004 10.9995 7.72937 10.9999L2.16638 11C2.08492 11 2.00573 11.0097 1.92991 11.0281C1.65568 9.72137 1.91021 8.32888 2.69351 7.18127C2.95808 6.79364 3.33235 6.41955 3.88153 5.87063L4.30229 5.44988C4.60591 5.14618 4.81267 4.93937 5.0138 4.77598Z" fill="#647067"/>
<path d="M2.82568 13C3.07919 13.3274 3.41808 13.6662 3.88154 14.1294L6.96409 17.2119C7.73042 17.9783 8.34853 18.5964 8.88997 19.056C9.44745 19.5293 9.98909 19.893 10.6213 20.0984C11.6255 20.4247 12.7073 20.4247 13.7115 20.0984C14.3437 19.893 14.8853 19.5293 15.4428 19.056C15.9843 18.5964 16.6024 17.9782 17.3687 17.2119L20.4512 14.1294C20.9147 13.6662 21.2536 13.3274 21.5071 13L16.6034 13.0001C15.7927 13.0005 15.1809 13.0009 14.6096 12.8274C14.1064 12.6746 13.6383 12.4241 13.2321 12.0902C13.2099 12.072 13.188 12.0534 13.1664 12.0346V15C13.1664 15.4407 12.8779 15.8294 12.4562 15.9571C12.0344 16.0848 11.5788 15.9214 11.3343 15.5547L10.7593 14.6921C10.2038 13.8589 10.0331 13.6212 9.83075 13.4549C9.62763 13.288 9.39358 13.1627 9.142 13.0863C8.89137 13.0102 8.59898 13 7.5975 13H2.82568Z" fill="#647067"/>
</svg>