<svg xmlns="http://www.w3.org/2000/svg" width="32" height="32" viewBox="0 0 32 32" fill="none">
  <path fill-rule="evenodd" clip-rule="evenodd" d="M9.11712 5.33325C5.55454 5.33325 2.6665 8.22129 2.6665 11.7839V16.857C2.66649 18.302 2.66648 19.4676 2.7436 20.4114C2.82299 21.3832 2.99075 22.2368 3.39313 23.0265C4.03228 24.2809 5.05215 25.3008 6.30657 25.94C7.09629 26.3423 7.94987 26.5101 8.92167 26.5895C9.86552 26.6666 11.0311 26.6666 12.4761 26.6666H20.0472C21.2495 26.6666 22.2194 26.6666 23.0088 26.6127C23.8204 26.5574 24.5381 26.4406 25.2177 26.1591C26.8512 25.4825 28.1491 24.1847 28.8257 22.5511C29.1072 21.8715 29.224 21.1538 29.2793 20.3422C29.3332 19.5528 29.3332 18.583 29.3332 17.3806V17.2859C29.3332 16.0835 29.3332 15.1137 29.2793 14.3243C29.224 13.5127 29.1072 12.795 28.8257 12.1154C28.1491 10.4818 26.8512 9.18401 25.2177 8.50739C24.5381 8.22589 23.8204 8.10914 23.0088 8.05376C22.2194 7.9999 21.2495 7.99991 20.0472 7.99992L17.0702 7.99992C16.2512 7.99992 15.9717 7.99676 15.7088 7.95873C15.3111 7.90122 14.9245 7.78415 14.5617 7.61144C14.3219 7.49722 14.0875 7.3448 13.4061 6.89052L12.6953 6.41663C11.6356 5.71021 10.3906 5.33325 9.11712 5.33325ZM15.9998 13.3333C16.7362 13.3333 17.3332 13.9302 17.3332 14.6666V15.9999H18.6665C19.4029 15.9999 19.9998 16.5969 19.9998 17.3333C19.9998 18.0696 19.4029 18.6666 18.6665 18.6666H17.3332V19.9999C17.3332 20.7363 16.7362 21.3333 15.9998 21.3333C15.2635 21.3333 14.6665 20.7363 14.6665 19.9999V18.6666H13.3332C12.5968 18.6666 11.9998 18.0696 11.9998 17.3333C11.9998 16.5969 12.5968 15.9999 13.3332 15.9999H14.6665V14.6666C14.6665 13.9302 15.2635 13.3333 15.9998 13.3333Z" fill="#849087"/>
</svg>