<svg xmlns="http://www.w3.org/2000/svg" width="32" height="32" viewBox="0 0 32 32" fill="none">
  <path fill-rule="evenodd" clip-rule="evenodd" d="M9.33318 6.83287C8.90764 6.90544 8.50519 7.01272 8.11528 7.17422C6.48176 7.85085 5.18393 9.14867 4.50731 10.7822C4.22581 11.4618 4.10906 12.1795 4.05368 12.9912C4.02052 13.4772 4.00778 14.0317 4.00288 14.6667H3.99984C3.26346 14.6667 2.6665 15.2637 2.6665 16.0001C2.6665 16.7365 3.26346 17.3334 3.99984 17.3334H4.00288C4.00778 17.9685 4.02052 18.523 4.05368 19.009C4.10906 19.8207 4.22581 20.5384 4.50731 21.218C5.18393 22.8515 6.48176 24.1493 8.11528 24.8259C8.79488 25.1074 9.51259 25.2242 10.3242 25.2796C11.1136 25.3334 12.0834 25.3334 13.2856 25.3334H18.7139C19.9161 25.3334 20.8861 25.3334 21.6754 25.2796C22.4871 25.2242 23.2048 25.1074 23.8844 24.8259C25.5179 24.1493 26.8157 22.8515 27.4924 21.218C27.7739 20.5384 27.8906 19.8207 27.946 19.009C27.9792 18.523 27.9919 17.9685 27.9968 17.3334H27.9998C28.7362 17.3334 29.3332 16.7365 29.3332 16.0001C29.3332 15.2637 28.7362 14.6667 27.9998 14.6667H27.9968C27.9919 14.0317 27.9792 13.4772 27.946 12.9912C27.8906 12.1795 27.7739 11.4618 27.4924 10.7822C26.8157 9.14867 25.5179 7.85085 23.8844 7.17422C23.4945 7.01271 23.092 6.90544 22.6665 6.83287C22.6664 7.36555 22.6645 7.8286 22.638 8.21659C22.608 8.65636 22.542 9.09624 22.362 9.53082C21.956 10.5109 21.1774 11.2896 20.1972 11.6956C19.7627 11.8756 19.3228 11.9416 18.883 11.9716C18.4653 12.0001 17.9607 12.0001 17.3758 12.0001H14.6239C14.039 12.0001 13.5343 12.0001 13.1167 11.9716C12.6769 11.9416 12.237 11.8756 11.8024 11.6956C10.8223 11.2896 10.0436 10.5109 9.63765 9.53082C9.45765 9.09624 9.39164 8.65636 9.36164 8.21659C9.33516 7.8286 9.3333 7.36555 9.33318 6.83287ZM13.3332 16.0001C13.3332 16.7365 12.7362 17.3334 11.9998 17.3334C11.2635 17.3334 10.6665 16.7365 10.6665 16.0001C10.6665 15.2637 11.2635 14.6667 11.9998 14.6667C12.7362 14.6667 13.3332 15.2637 13.3332 16.0001ZM19.9998 17.3334C20.7362 17.3334 21.3332 16.7365 21.3332 16.0001C21.3332 15.2637 20.7362 14.6667 19.9998 14.6667C19.2635 14.6667 18.6665 15.2637 18.6665 16.0001C18.6665 16.7365 19.2635 17.3334 19.9998 17.3334Z" fill="#8B5CF6"/>
  <path d="M19.9998 6.6698C19.6036 6.66674 19.176 6.66675 18.7141 6.66675H13.2858C12.8239 6.66675 12.3961 6.66674 11.9998 6.6698C11.9998 7.30756 12.0006 7.7196 12.0221 8.03507C12.0429 8.33907 12.0783 8.45484 12.1013 8.51033C12.2367 8.83703 12.4962 9.0966 12.8229 9.23192C12.8784 9.2549 12.9942 9.29039 13.2982 9.31113C13.6142 9.33269 14.027 9.33342 14.6665 9.33342H17.3332C17.9727 9.33342 18.3855 9.33269 18.7015 9.31113C19.0055 9.29039 19.1213 9.2549 19.1768 9.23192C19.5035 9.0966 19.763 8.83703 19.8983 8.51033C19.9213 8.45484 19.9568 8.33907 19.9776 8.03507C19.9991 7.7196 19.9998 7.30756 19.9998 6.6698Z" fill="#8B5CF6"/>
</svg>