<svg xmlns="http://www.w3.org/2000/svg" width="24" height="25" viewBox="0 0 24 25" fill="none">
  <path fill-rule="evenodd" clip-rule="evenodd" d="M11.9632 2.5H12.0368C13.4035 2.5 14.4801 2.49999 15.351 2.55941C16.2387 2.61997 16.9853 2.7456 17.6788 3.03284C19.394 3.7433 20.7567 5.10602 21.4672 6.82122C21.7544 7.51469 21.88 8.26134 21.9406 9.14899C22 10.0199 22 11.0965 22 12.4631V12.5369C22 13.9035 22 14.9801 21.9406 15.851C21.88 16.7387 21.7544 17.4853 21.4672 18.1788C20.7567 19.894 19.394 21.2567 17.6788 21.9672C16.9853 22.2544 16.2387 22.38 15.351 22.4406C14.4801 22.5 13.4035 22.5 12.0369 22.5H11.9631C10.5965 22.5 9.51986 22.5 8.64899 22.4406C7.76134 22.38 7.01469 22.2544 6.32122 21.9672C4.60602 21.2567 3.2433 19.894 2.53284 18.1788C2.2456 17.4853 2.11997 16.7387 2.05941 15.851C1.99999 14.9801 2 13.9035 2 12.5369V12.4632C2 11.0965 1.99999 10.0199 2.05941 9.14899C2.11997 8.26134 2.2456 7.51469 2.53284 6.82122C3.2433 5.10602 4.60602 3.7433 6.32122 3.03284C7.01469 2.7456 7.76134 2.61997 8.64899 2.55941C9.51986 2.49999 10.5965 2.5 11.9632 2.5ZM17.7071 10.2071C18.0976 9.81658 18.0976 9.18342 17.7071 8.79289C17.3166 8.40237 16.6834 8.40237 16.2929 8.79289L12.2929 12.7929C11.4179 13.6679 11.1451 13.922 10.888 14.0494C10.3285 14.3267 9.67152 14.3267 9.11197 14.0494C8.85494 13.922 8.58207 13.6679 7.70711 12.7929C7.31658 12.4024 6.68342 12.4024 6.29289 12.7929C5.90237 13.1834 5.90237 13.8166 6.29289 14.2071L6.41376 14.3281C7.11251 15.0278 7.6323 15.5483 8.22394 15.8414C9.34304 16.396 10.657 16.396 11.7761 15.8414C12.3677 15.5483 12.8875 15.0278 13.5862 14.3281L17.7071 10.2071Z" fill="#F43F5E"/>
</svg>