<svg xmlns="http://www.w3.org/2000/svg" width="25" height="24" viewBox="0 0 25 24" fill="none">
  <path fill-rule="evenodd" clip-rule="evenodd" d="M12.196 2.00005H12.4712C13.2666 1.99962 13.8572 1.9993 14.3689 2.13639C15.7492 2.50626 16.8274 3.58445 17.1973 4.96482C17.3344 5.47647 17.3341 6.06713 17.3336 6.8625L17.3336 7.0001L17.4712 7.00005C18.2666 6.99962 18.8572 6.9993 19.3689 7.13639C20.7492 7.50626 21.8274 8.58445 22.1973 9.96482C22.3344 10.4765 22.3341 11.0671 22.3336 11.8625V12.1377C22.3341 12.9331 22.3344 13.5237 22.1973 14.0354C21.8274 15.4157 20.7492 16.4939 19.3689 16.8638C18.8572 17.0009 18.2666 17.0006 17.4712 17.0001L17.3435 17.0001C17.3527 17.2577 17.3699 17.399 17.4018 17.5178C17.5867 18.2079 18.1258 18.747 18.816 18.932C19.0383 18.9915 19.3393 19.0001 20.3336 19.0001C20.8859 19.0001 21.3336 19.4478 21.3336 20.0001C21.3336 20.5524 20.8859 21.0001 20.3336 21.0001L20.196 21.0002C19.4007 21.0006 18.81 21.0009 18.2983 20.8638C16.918 20.494 15.8398 19.4158 15.4699 18.0354C15.3875 17.7279 15.3548 17.3919 15.3418 17.0001H13.3336V21.0001C13.3336 21.5524 12.8859 22.0001 12.3336 22.0001C11.7813 22.0001 11.3336 21.5524 11.3336 21.0001V17.0001H9.3254C9.31247 17.3919 9.27971 17.7279 9.19732 18.0354C8.82745 19.4158 7.74926 20.494 6.36889 20.8638C5.85724 21.0009 5.26658 21.0006 4.4712 21.0002L4.33362 21.0001C3.78133 21.0001 3.33362 20.5524 3.33362 20.0001C3.33362 19.4478 3.78133 19.0001 4.33362 19.0001C5.32797 19.0001 5.62898 18.9915 5.85126 18.932C6.54144 18.747 7.08054 18.2079 7.26547 17.5178C7.2973 17.399 7.31457 17.2577 7.32376 17.0001L7.19602 17.0001C6.40064 17.0006 5.80996 17.0009 5.29832 16.8638C3.91795 16.4939 2.83976 15.4157 2.46989 14.0354C2.33279 13.5237 2.33311 12.9331 2.33354 12.1377V11.8625C2.33311 11.0671 2.33279 10.4765 2.46989 9.96482C2.83976 8.58445 3.91795 7.50626 5.29832 7.13639C5.80997 6.9993 6.40063 6.99962 7.19601 7.00005L7.33359 7.0001L7.33354 6.86251C7.33311 6.06713 7.33279 5.47647 7.46989 4.96482C7.83976 3.58445 8.91795 2.50626 10.2983 2.13639C10.81 1.9993 11.4006 1.99962 12.196 2.00005ZM9.33362 11.0001C9.33362 10.4478 9.78133 10.0001 10.3336 10.0001H11.3336V9.00012C11.3336 8.44784 11.7813 8.00012 12.3336 8.00012C12.8859 8.00012 13.3336 8.44784 13.3336 9.00012V10.0001H14.3336C14.8859 10.0001 15.3336 10.4478 15.3336 11.0001C15.3336 11.5524 14.8859 12.0001 14.3336 12.0001H13.3336V13.0001C13.3336 13.5524 12.8859 14.0001 12.3336 14.0001C11.7813 14.0001 11.3336 13.5524 11.3336 13.0001V12.0001H10.3336C9.78133 12.0001 9.33362 11.5524 9.33362 11.0001Z" fill="#84CC16"/>
</svg>