<svg xmlns="http://www.w3.org/2000/svg" width="25" height="24" viewBox="0 0 25 24" fill="none">
  <path fill-rule="evenodd" clip-rule="evenodd" d="M13.6974 22.2856C13.0177 22.4288 12.3155 22.4288 11.6357 22.2856C10.8649 22.1232 10.1567 21.7181 9.13208 21.1321L8.25604 20.6315C7.21598 20.0377 6.49713 19.6273 5.96131 19.0359C5.48881 18.5145 5.13172 17.8991 4.91337 17.2301C4.66575 16.4715 4.66608 15.6438 4.66654 14.4461L4.66658 9.35719C4.66657 8.27341 4.66657 7.39926 4.7244 6.69138C4.78395 5.96253 4.90976 5.32234 5.21155 4.73005C5.69092 3.78924 6.45582 3.02433 7.39663 2.54497C7.98892 2.24318 8.62911 2.11737 9.35796 2.05782C10.0658 1.99998 10.9399 1.99999 12.0236 2H13.3094C14.3931 1.99999 15.2674 1.99998 15.9752 2.05782C16.7041 2.11737 17.3442 2.24318 17.9365 2.54497C18.8773 3.02433 19.6423 3.78924 20.1216 4.73005C20.4234 5.32234 20.5492 5.96253 20.6088 6.69138C20.6666 7.39926 20.6666 8.27342 20.6666 9.35722L20.6666 14.4461C20.6671 15.6438 20.6674 16.4715 20.4198 17.2301C20.2015 17.8991 19.8444 18.5145 19.3719 19.0359C18.836 19.6273 18.1172 20.0377 17.0771 20.6315L16.2011 21.1321C15.1765 21.7181 14.4682 22.1232 13.6974 22.2856ZM8.66656 12C8.66656 11.4477 9.11428 11 9.66656 11H11.6666V9C11.6666 8.44772 12.1143 8 12.6666 8C13.2189 8 13.6666 8.44772 13.6666 9V11H15.6666C16.2189 11 16.6666 11.4477 16.6666 12C16.6666 12.5523 16.2189 13 15.6666 13H13.6666V15C13.6666 15.5523 13.2189 16 12.6666 16C12.1143 16 11.6666 15.5523 11.6666 15V13H9.66656C9.11428 13 8.66656 12.5523 8.66656 12Z" fill="#849087"/>
</svg>