<svg xmlns="http://www.w3.org/2000/svg" width="25" height="24" viewBox="0 0 25 24" fill="none">
  <path fill-rule="evenodd" clip-rule="evenodd" d="M7.89487 5.85196C8.08268 5.39853 8.37686 5.00258 8.74724 4.69427C9.06048 6.01638 10.2486 7.00001 11.6665 7.00001H13.6665C15.0844 7.00001 16.2725 6.01635 16.5858 4.69422C17.175 5.18499 17.5724 5.89757 17.6521 6.70596C17.7062 7.25558 18.1956 7.65726 18.7453 7.60313C19.2949 7.54899 19.6966 7.05955 19.6424 6.50992C19.4086 4.13604 17.5305 2.25789 15.1566 2.02409C14.9112 1.99992 14.633 1.99995 14.2244 2L12.631 2.00001C11.7292 2 11.0018 2 10.4098 2.04039C9.80107 2.08192 9.26279 2.16949 8.75309 2.38061C7.52795 2.88808 6.55458 3.86145 6.04711 5.08659C5.83598 5.59629 5.74842 6.13457 5.70688 6.74332C5.66649 7.33532 5.6665 8.06273 5.6665 8.96449V15.0355C5.6665 15.9373 5.66649 16.6647 5.70688 17.2567C5.74842 17.8654 5.83598 18.4037 6.04711 18.9134C6.55458 20.1386 7.52795 21.1119 8.75309 21.6194C9.26279 21.8305 9.80107 21.9181 10.4098 21.9596C11.0018 22 11.7292 22 12.631 22L13.3402 22.0001C14.5675 22.0005 15.4055 22.0008 16.1179 21.7847C17.7159 21.3 18.9665 20.0494 19.4512 18.4514C19.6673 17.739 19.667 16.901 19.6665 15.6737L19.6665 15.5C19.6665 14.9477 19.2188 14.5 18.6665 14.5C18.1142 14.5 17.6665 14.9477 17.6665 15.5C17.6665 16.9683 17.6557 17.4808 17.5373 17.8709C17.2465 18.8297 16.4962 19.58 15.5374 19.8708C15.1473 19.9892 14.6348 20 13.1665 20H12.6665C11.7209 20 11.0618 19.9995 10.546 19.9643C10.039 19.9297 9.74384 19.865 9.51845 19.7716C8.78337 19.4672 8.19935 18.8831 7.89487 18.1481C7.80151 17.9227 7.73683 17.6275 7.70224 17.1206C7.66705 16.6047 7.6665 15.9456 7.6665 15V9.00001C7.6665 8.05444 7.66705 7.39535 7.70224 6.87946C7.73683 6.37255 7.80151 6.07734 7.89487 5.85196Z" fill="#F43F5E"/>
  <path d="M22.3736 8.70712C22.7641 8.31659 22.7641 7.68343 22.3736 7.2929C21.9831 6.90238 21.3499 6.90238 20.9594 7.2929L15.9594 12.2929C15.0844 13.1679 14.8116 13.422 14.5545 13.5494C13.995 13.8267 13.338 13.8267 12.7785 13.5494C12.5214 13.422 12.2486 13.1679 11.3736 12.2929C10.9831 11.9024 10.3499 11.9024 9.9594 12.2929C9.56887 12.6834 9.56887 13.3166 9.9594 13.7071L10.0803 13.8281C10.779 14.5278 11.2988 15.0483 11.8904 15.3414C13.0095 15.896 14.3235 15.896 15.4426 15.3414C16.0342 15.0483 16.554 14.5278 17.2527 13.8281L22.3736 8.70712Z" fill="#F43F5E"/>
</svg>