<svg xmlns="http://www.w3.org/2000/svg" width="25" height="24" viewBox="0 0 25 24" fill="none">
  <path d="M12.3015 2C11.8629 1.99999 11.4844 1.99998 11.1711 2.02135C10.8413 2.04386 10.5114 2.09336 10.1854 2.22836C9.45036 2.53285 8.86634 3.11687 8.56186 3.85195C8.42686 4.17788 8.37735 4.50779 8.35485 4.83762C8.33347 5.15088 8.33348 5.52936 8.3335 5.96801L8.3335 6C8.3335 6.47963 8.33296 6.78926 8.31679 7.02624C8.30123 7.25424 8.27461 7.34107 8.25738 7.38269C8.15588 7.62771 7.96121 7.82239 7.71618 7.92388C7.67457 7.94112 7.58774 7.96774 7.35974 7.98329C7.12276 7.99946 6.81312 8 6.3335 8L6.30151 8C5.86286 7.99999 5.48437 7.99998 5.17112 8.02135C4.84129 8.04386 4.51138 8.09336 4.18545 8.22836C3.45036 8.53285 2.86634 9.11687 2.56186 9.85195C2.42686 10.1779 2.37735 10.5078 2.35485 10.8376C2.33347 11.1509 2.33348 11.5293 2.3335 11.968V12.032C2.33348 12.4706 2.33347 12.8491 2.35485 13.1624C2.37735 13.4922 2.42686 13.8221 2.56186 14.1481C2.86634 14.8831 3.45036 15.4672 4.18545 15.7716C4.51138 15.9066 4.84129 15.9561 5.17112 15.9787C5.48436 16 5.86283 16 6.30146 16H6.3335C6.81312 16 7.12276 16.0005 7.35974 16.0167C7.58774 16.0323 7.67457 16.0589 7.71618 16.0761C7.96121 16.1776 8.15588 16.3723 8.25738 16.6173C8.27461 16.6589 8.30123 16.7458 8.31679 16.9738C8.33296 17.2107 8.3335 17.5204 8.3335 18L8.3335 18.032C8.33348 18.4706 8.33347 18.8491 8.35485 19.1624C8.37735 19.4922 8.42686 19.8221 8.56186 20.1481C8.86634 20.8831 9.45036 21.4672 10.1854 21.7716C10.5114 21.9066 10.8413 21.9561 11.1711 21.9787C11.4844 22 11.8629 22 12.3015 22H12.3655C12.8041 22 13.1826 22 13.4959 21.9787C13.8257 21.9561 14.1556 21.9066 14.4815 21.7716C15.2166 21.4672 15.8007 20.8831 16.1051 20.1481C16.2401 19.8221 16.2896 19.4922 16.3121 19.1624C16.3335 18.8491 16.3335 18.4707 16.3335 18.032V18C16.3335 17.5204 16.334 17.2107 16.3502 16.9738C16.3658 16.7458 16.3924 16.6589 16.4096 16.6173C16.5111 16.3723 16.7058 16.1776 16.9508 16.0761C16.9924 16.0589 17.0793 16.0323 17.3073 16.0167C17.5442 16.0005 17.8539 16 18.3335 16H18.3655C18.8041 16 19.1826 16 19.4959 15.9787C19.8257 15.9561 20.1556 15.9066 20.4815 15.7716C21.2166 15.4672 21.8007 14.8831 22.1051 14.1481C22.2401 13.8221 22.2896 13.4922 22.3121 13.1624C22.3335 12.8491 22.3335 12.4706 22.3335 12.032V11.968C22.3335 11.5294 22.3335 11.1509 22.3121 10.8376C22.2896 10.5078 22.2401 10.1779 22.1051 9.85195C21.8007 9.11687 21.2166 8.53285 20.4815 8.22836C20.1556 8.09336 19.8257 8.04386 19.4959 8.02135C19.1826 7.99998 18.8041 7.99999 18.3655 8L18.3335 8C17.8539 8 17.5442 7.99946 17.3073 7.98329C17.0793 7.96774 16.9924 7.94112 16.9508 7.92388C16.7058 7.82239 16.5111 7.62771 16.4096 7.38269C16.3924 7.34107 16.3658 7.25424 16.3502 7.02624C16.334 6.78926 16.3335 6.47963 16.3335 6V5.96801C16.3335 5.52938 16.3335 5.15087 16.3121 4.83762C16.2896 4.50779 16.2401 4.17788 16.1051 3.85195C15.8007 3.11687 15.2166 2.53285 14.4815 2.22836C14.1556 2.09336 13.8257 2.04386 13.4959 2.02135C13.1826 1.99998 12.8042 1.99999 12.3655 2H12.3015Z" fill="#60A5FA"/>
</svg>