<svg width="24" height="24" viewBox="0 0 24 24" fill="none" xmlns="http://www.w3.org/2000/svg">
  <path d="M4.19808 13C4.21853 13.0792 4.24145 13.1579 4.26684 13.2361C4.39527 13.6313 4.644 14.049 5.14523 14.6394C5.65404 15.2387 6.36225 15.948 7.36396 16.9497L9.70711 19.2929C10.0976 19.6834 10.0976 20.3166 9.70711 20.7071C9.31658 21.0976 8.68342 21.0976 8.29289 20.7071L5.91881 18.333C4.95498 17.3692 4.18845 16.6027 3.62055 15.9337C3.03901 15.2487 2.60724 14.6005 2.36473 13.8541C2.21103 13.3811 2.11766 12.8937 2.08463 12.4032C2.03022 12.2799 2 12.1435 2 12C2 11.8565 2.03022 11.7201 2.08463 11.5968C2.11766 11.1063 2.21103 10.6189 2.36473 10.1459C2.60724 9.39952 3.03901 8.7513 3.62055 8.06627C4.18845 7.39732 4.95498 6.6308 5.9188 5.66699L8.29289 3.29289C8.68342 2.90237 9.31658 2.90237 9.70711 3.29289C10.0976 3.68342 10.0976 4.31658 9.70711 4.70711L7.36396 7.05025C6.36225 8.05196 5.65404 8.76127 5.14523 9.36062C4.644 9.95105 4.39527 10.3687 4.26684 10.7639C4.24145 10.8421 4.21853 10.9208 4.19808 11H21C21.5523 11 22 11.4477 22 12C22 12.5523 21.5523 13 21 13H4.19808Z" fill="white"/>
</svg>